HIERARCHY
ROOT hip
{
  OFFSET 0 0 0
  CHANNELS 6 Xposition Yposition Zposition Zrotation Yrotation Xrotation
  JOINT abdomen
  {
    OFFSET 0 20.6881 -0.73152
    CHANNELS 3 Zrotation Xrotation Yrotation
    JOINT chest
    {
      OFFSET 0 11.7043 -0.48768
      CHANNELS 3 Zrotation Xrotation Yrotation
      JOINT neck
      {
        OFFSET 0 22.1894 -2.19456
        CHANNELS 3 Zrotation Xrotation Yrotation
        JOINT head
        {
          OFFSET -0.24384 7.07133 1.2192
          CHANNELS 3 Zrotation Xrotation Yrotation
          JOINT leftEye
          {
            OFFSET 4.14528 8.04674 8.04672
            CHANNELS 3 Zrotation Xrotation Yrotation
            End Site
            {
              OFFSET 1 0 0
            }
          }
          JOINT rightEye
          {
            OFFSET -3.6576 8.04674 8.04672
            CHANNELS 3 Zrotation Xrotation Yrotation
            End Site
            {
              OFFSET 1 0 0
            }
          }
        }
      }
      JOINT rCollar
      {
        OFFSET -2.68224 19.2634 -4.8768
        CHANNELS 3 Zrotation Xrotation Yrotation
        JOINT rShldr
        {
          OFFSET -8.77824 -1.95073 1.46304
          CHANNELS 3 Zrotation Xrotation Yrotation
          JOINT rForeArm
          {
            OFFSET -28.1742 -1.7115 0.48768
            CHANNELS 3 Zrotation Xrotation Yrotation
            JOINT rHand
            {
              OFFSET -22.5879 0.773209 7.07136
              CHANNELS 3 Zrotation Xrotation Yrotation
              JOINT rThumb1
              {
                OFFSET -1.2192 -0.487915 3.41376
                CHANNELS 3 Zrotation Xrotation Yrotation
                JOINT rThumb2
                {
                  OFFSET -3.37035 -0.52449 3.41376
                  CHANNELS 3 Zrotation Xrotation Yrotation
                  End Site
                  {
                    OFFSET -1.78271 -1.18214 1.43049
                  }
                }
              }
              JOINT rIndex1
              {
                OFFSET -7.75947 0.938293 5.60832
                CHANNELS 3 Zrotation Xrotation Yrotation
                JOINT rIndex2
                {
                  OFFSET -2.54057 -0.884171 1.56538
                  CHANNELS 3 Zrotation Xrotation Yrotation
                  End Site
                  {
                    OFFSET -1.62519 -0.234802 1.16502
                  }
                }
              }
              JOINT rMid1
              {
                OFFSET -8.24714 1.18213 3.41376
                CHANNELS 3 Zrotation Xrotation Yrotation
                JOINT rMid2
                {
                  OFFSET -3.10165 -0.590103 1.0647
                  CHANNELS 3 Zrotation Xrotation Yrotation
                  End Site
                  {
                    OFFSET -2.48547 -0.328903 0.83742
                  }
                }
              }
              JOINT rRing1
              {
                OFFSET -8.82822 0.546677 1.51678
                CHANNELS 3 Zrotation Xrotation Yrotation
                JOINT rRing2
                {
                  OFFSET -2.60934 -0.819778 -0.0198488
                  CHANNELS 3 Zrotation Xrotation Yrotation
                  End Site
                  {
                    OFFSET -2.33842 -0.294052 0.168128
                  }
                }
              }
              JOINT rPinky1
              {
                OFFSET -8.27202 -0.0477905 -0.4584
                CHANNELS 3 Zrotation Xrotation Yrotation
                JOINT rPinky2
                {
                  OFFSET -1.82734 -0.647385 -0.700984
                  CHANNELS 3 Zrotation Xrotation Yrotation
                  End Site
                  {
                    OFFSET -1.69225 -0.51767 -0.607171
                  }
                }
              }
            }
          }
        }
      }
      JOINT lCollar
      {
        OFFSET 2.68224 19.2634 -4.8768
        CHANNELS 3 Zrotation Xrotation Yrotation
        JOINT lShldr
        {
          OFFSET 8.77824 -1.95073 1.46304
          CHANNELS 3 Zrotation Xrotation Yrotation
          JOINT lForeArm
          {
            OFFSET 28.1742 -1.7115 0.48768
            CHANNELS 3 Zrotation Xrotation Yrotation
            JOINT lHand
            {
              OFFSET 22.5879 0.773209 7.07136
              CHANNELS 3 Zrotation Xrotation Yrotation
              JOINT lThumb1
              {
                OFFSET 1.2192 -0.487915 3.41376
                CHANNELS 3 Zrotation Xrotation Yrotation
                JOINT lThumb2
                {
                  OFFSET 3.37035 -0.52449 3.41376
                  CHANNELS 3 Zrotation Xrotation Yrotation
                  End Site
                  {
                    OFFSET 1.78271 -1.18214 1.43049
                  }
                }
              }
              JOINT lIndex1
              {
                OFFSET 7.75947 0.938293 5.60832
                CHANNELS 3 Zrotation Xrotation Yrotation
                JOINT lIndex2
                {
                  OFFSET 2.54057 -0.884171 1.56538
                  CHANNELS 3 Zrotation Xrotation Yrotation
                  End Site
                  {
                    OFFSET 1.62519 -0.234802 1.16502
                  }
                }
              }
              JOINT lMid1
              {
                OFFSET 8.24714 1.18213 3.41376
                CHANNELS 3 Zrotation Xrotation Yrotation
                JOINT lMid2
                {
                  OFFSET 3.10165 -0.590103 1.0647
                  CHANNELS 3 Zrotation Xrotation Yrotation
                  End Site
                  {
                    OFFSET 2.48547 -0.328903 0.83742
                  }
                }
              }
              JOINT lRing1
              {
                OFFSET 8.82822 0.546677 1.51678
                CHANNELS 3 Zrotation Xrotation Yrotation
                JOINT lRing2
                {
                  OFFSET 2.60934 -0.819778 -0.0198488
                  CHANNELS 3 Zrotation Xrotation Yrotation
                  End Site
                  {
                    OFFSET 2.33842 -0.294052 0.168128
                  }
                }
              }
              JOINT lPinky1
              {
                OFFSET 8.27202 -0.0477905 -0.4584
                CHANNELS 3 Zrotation Xrotation Yrotation
                JOINT lPinky2
                {
                  OFFSET 1.82734 -0.647385 -0.700984
                  CHANNELS 3 Zrotation Xrotation Yrotation
                  End Site
                  {
                    OFFSET 1.69225 -0.51767 -0.607171
                  }
                }
              }
            }
          }
        }
      }
    }
  }
  JOINT rButtock
  {
    OFFSET -8.77824 4.35084 1.2192
    CHANNELS 3 Zrotation Xrotation Yrotation
    JOINT rThigh
    {
      OFFSET 0 -1.70687 -2.19456
      CHANNELS 3 Zrotation Xrotation Yrotation
      JOINT rShin
      {
        OFFSET 0 -36.8199 0.73152
        CHANNELS 3 Zrotation Xrotation Yrotation
        JOINT rFoot
        {
          OFFSET 0.73152 -45.1104 -5.12064
          CHANNELS 3 Zrotation Xrotation Yrotation
          End Site
          {
            OFFSET -1.1221 -3.69964 12.103
          }
        }
      }
    }
  }
  JOINT lButtock
  {
    OFFSET 8.77824 4.35084 1.2192
    CHANNELS 3 Zrotation Xrotation Yrotation
    JOINT lThigh
    {
      OFFSET 0 -1.70687 -2.19456
      CHANNELS 3 Zrotation Xrotation Yrotation
      JOINT lShin
      {
        OFFSET 0 -36.8199 0.73152
        CHANNELS 3 Zrotation Xrotation Yrotation
        JOINT lFoot
        {
          OFFSET -0.73152 -45.1104 -5.12064
          CHANNELS 3 Zrotation Xrotation Yrotation
          End Site
          {
            OFFSET 1.1221 -3.69964 12.103
          }
        }
      }
    }
  }
}
MOTION
Frames:	4
Frame Time:	0.00833333
272.195 81.1825 34.3946 361.857 144.371 360.262 -6.44935 12.4316 11.6084 -2.50333 -0.810798 3.45599 12.678 -6.09556 9.3417 -23.3787 4.71362 16.4166 -0.0 0.0 0.0 -0.0 0.0 0.0 -7.13986e-15 -8.04119e-15 -6.46269e-13 23.1246 52.4681 47.7062 -24.933 -20.9533 52.7063 -0.116792 9.69199 1.37543 -3.08403e-10 -9.63306e-09 1.55894e-09 -5.1938e-10 -1.67345e-08 2.71116e-09 -3.08405e-10 -9.63306e-09 1.55892e-09 7.73091 5.47488 0.417314 -3.08404e-10 -9.63306e-09 1.55894e-09 2.90554 0.965183 0.102902 -3.08398e-10 -9.63307e-09 1.55894e-09 10.2786 0.731801 0.0259123 -3.08404e-10 -9.63307e-09 1.55895e-09 2.22167 -0.733487 -0.20892 -7.1924e-15 -8.06098e-15 -6.46402e-13 -74.2362 11.2112 13.7231 9.5613 -3.86066 -17.0139 0.786868 24.2077 -3.62528 3.51818e-09 -1.34111e-09 -1.45506e-09 6.04489e-09 -2.33112e-09 -2.58172e-09 3.51818e-09 -1.34111e-09 -1.45506e-09 -7.73091 5.47488 -0.417314 3.51818e-09 -1.34111e-09 -1.45506e-09 -2.90554 0.965183 -0.102902 3.51817e-09 -1.34111e-09 -1.45507e-09 -10.2786 0.731801 -0.0259123 3.51819e-09 -1.34111e-09 -1.45509e-09 -2.22167 -0.733487 0.20892 -2.03217e-16 0.0 -3.88251e-19 -10.857 9.26711 -7.81083 -0.0166765 29.4563 1.00057 -9.26483 -14.0781 -28.5426 2.03217e-16 0.0 3.88251e-19 4.9966 -17.8068 24.2439 0.155669 30.6587 -0.897406 8.47921 -15.583 21.2826
272.217 81.3438 33.6771 360.939 144.539 359.615 -7.15569 12.5546 11.9465 -2.56582 -0.873781 3.53955 12.4757 -6.14696 9.24331 -23.1095 5.184 16.433 -0.0 0.0 0.0 -0.0 0.0 0.0 3.81735e-14 4.45363e-14 -7.4748e-13 22.7713 52.8336 48.041 -24.8162 -20.7069 52.3056 -0.11868 9.77646 1.38762 -8.43893e-10 -1.04865e-08 1.80646e-09 -1.44283e-09 -1.82313e-08 3.14395e-09 -8.43895e-10 -1.04865e-08 1.80644e-09 7.73091 5.47488 0.417314 -8.43894e-10 -1.04865e-08 1.80646e-09 2.90554 0.965183 0.102902 -8.43889e-10 -1.04865e-08 1.80646e-09 10.2786 0.731801 0.0259123 -8.43896e-10 -1.04865e-08 1.80648e-09 2.22167 -0.733487 -0.20892 3.81127e-14 4.45184e-14 -7.47579e-13 -74.1293 13.5233 12.9396 10.1582 -4.238 -18.0984 0.64174 22.1436 -3.27866 3.36347e-09 -1.43539e-09 -1.91628e-09 5.76805e-09 -2.49541e-09 -3.37391e-09 3.36347e-09 -1.43538e-09 -1.91628e-09 -7.73091 5.47488 -0.417314 3.36348e-09 -1.43538e-09 -1.91628e-09 -2.90554 0.965183 -0.102902 3.36347e-09 -1.43538e-09 -1.91629e-09 -10.2786 0.731801 -0.0259123 3.36348e-09 -1.43538e-09 -1.91631e-09 -2.22167 -0.733487 0.20892 -2.03217e-16 0.0 -3.88251e-19 -11.5572 8.59725 -7.85671 -0.0508578 30.9379 0.995217 -8.31823 -12.8421 -27.298 2.03217e-16 0.0 3.88251e-19 4.21818 -16.8401 24.2362 0.151076 30.0449 -0.86753 8.36146 -15.6891 20.9458
272.166 81.4794 33.0121 360.467 144.914 359.456 -7.5454 12.52 12.0959 -2.60907 -0.930532 3.57097 12.3848 -6.19561 9.22217 -22.9659 5.68223 16.5799 -0.0 0.0 0.0 -0.0 0.0 0.0 4.59466e-14 7.16178e-14 -6.60161e-13 22.0422 53.2348 48.5964 -24.7148 -20.4966 51.9602 -0.123873 9.9956 1.41931 -1.14422e-09 -9.10898e-09 1.62561e-09 -1.9642e-09 -1.58448e-08 2.83105e-09 -1.14422e-09 -9.10898e-09 1.62559e-09 7.73091 5.47488 0.417314 -1.14422e-09 -9.10898e-09 1.62561e-09 2.90554 0.965183 0.102902 -1.14422e-09 -9.10898e-09 1.62561e-09 10.2786 0.731801 0.0259123 -1.14423e-09 -9.10898e-09 1.62562e-09 2.22167 -0.733487 -0.20892 4.5888e-14 7.16058e-14 -6.60264e-13 -74.1367 16.0317 12.3531 10.9466 -4.75319 -19.5667 0.469436 19.4739 -2.84264 2.48587e-09 -1.26605e-09 -1.5342e-09 4.25785e-09 -2.19908e-09 -2.69851e-09 2.48587e-09 -1.26604e-09 -1.5342e-09 -7.73091 5.47488 -0.417314 2.48587e-09 -1.26604e-09 -1.5342e-09 -2.90554 0.965183 -0.102902 2.48586e-09 -1.26604e-09 -1.53421e-09 -10.2786 0.731801 -0.0259123 2.48588e-09 -1.26604e-09 -1.53422e-09 -2.22167 -0.733487 0.20892 -2.03217e-16 0.0 -3.88251e-19 -11.893 7.76088 -7.84343 -0.0794738 32.2538 0.991637 -7.61305 -12.0631 -26.0122 2.03217e-16 0.0 3.88251e-19 3.66442 -16.1626 24.0228 0.146621 29.4806 -0.841402 8.26186 -15.9651 20.5117
272.139 81.5954 32.4195 360.317 145.312 359.566 -7.70789 12.3878 12.131 -2.63879 -0.992795 3.57113 12.3499 -6.25595 9.24447 -22.8681 6.2009 16.7988 -0.0 0.0 0.0 -0.0 0.0 0.0 3.3158e-14 8.74666e-14 -4.48747e-13 20.9817 53.6606 49.354 -24.623 -20.3091 51.6469 -0.132272 10.3292 1.4677 -1.33399e-09 -6.17636e-09 1.15985e-09 -2.29742e-09 -1.07527e-08 2.02242e-09 -1.33399e-09 -6.17637e-09 1.15984e-09 7.73091 5.47488 0.417314 -1.334e-09 -6.17636e-09 1.15985e-09 2.90554 0.965183 0.102902 -1.33399e-09 -6.17636e-09 1.15985e-09 10.2786 0.731801 0.0259123 -1.334e-09 -6.17636e-09 1.15986e-09 2.22167 -0.733487 -0.20892 3.31078e-14 8.74634e-14 -4.48878e-13 -74.2484 18.7882 11.9298 11.8728 -5.37066 -21.361 0.306373 16.2268 -2.3359 1.06356e-09 -9.11401e-10 -6.09797e-10 1.81666e-09 -1.57924e-09 -1.07761e-09 1.06356e-09 -9.11397e-10 -6.0979e-10 -7.73091 5.47488 -0.417314 1.06357e-09 -9.11397e-10 -6.09791e-10 -2.90554 0.965183 -0.102902 1.06356e-09 -9.11396e-10 -6.09801e-10 -10.2786 0.731801 -0.0259123 1.06357e-09 -9.11395e-10 -6.09815e-10 -2.22167 -0.733487 0.20892 -2.03217e-16 0.0 -3.88251e-19 -11.9793 6.79811 -7.77976 -0.106057 33.4535 0.987851 -7.01604 -11.5575 -24.5934 2.03217e-16 0.0 3.88251e-19 3.28292 -15.6477 23.6903 0.142046 28.9235 -0.817216 8.16888 -16.3513 20.0143
